Coordinates
version=1
nRows=11
nColumns=36
inDegrees=yes

Units are S.I. units (second, meters, Newtons, ...)
If the header above contains a line with 'inDegrees', this indicates whether rotational values are in degrees (yes) or radians (no).

endheader
time	pelvis_tilt	pelvis_list	pelvis_rotation	pelvis_tx	pelvis_ty	pelvis_tz	hip_flexion_r	hip_adduction_r	hip_rotation_r	knee_angle_r	knee_angle_r_beta	ankle_angle_r	subtalar_angle_r	mtp_angle_r	hip_flexion_l	hip_adduction_l	hip_rotation_l	knee_angle_l	knee_angle_l_beta	ankle_angle_l	subtalar_angle_l	mtp_angle_l	lumbar_extension	lumbar_bending	lumbar_rotation	arm_flex_r	arm_add_r	arm_rot_r	elbow_flex_r	pro_sup_r	arm_flex_l	arm_add_l	arm_rot_l	elbow_flex_l	pro_sup_l
      5.65000000	     -1.07292895	     -0.23573360	     -8.92029873	      0.70807499	      0.99098260	      0.61756961	      0.58972834	      8.91730910	     -0.50141533	      0.15596910	      0.00272217	     -7.57966876	     -7.04797278	     -7.49999987	     29.96992883	     -0.06523495	      7.70210472	     21.88153970	      0.38190491	     -0.99549202	      1.42472769	     -7.49999987	     -7.94028640	     -1.85290051	      1.12504604	     27.50506183	    -10.70984651	     57.62724657	    115.83837060	     90.59300823	     25.54924851	     -4.26178088	     68.52710206	    117.00387268	     93.74586278
      5.66666670	     -0.78087909	     -0.03094254	     -8.71846517	      0.70283045	      0.98966550	      0.62056636	      0.23800224	      8.62957020	      0.26881866	      0.15035583	      0.00262420	     -6.93973821	     -7.08671073	     -7.49999987	     29.71005357	      0.10551458	      7.49387659	     21.41327628	      0.37373217	     -0.76298842	      1.64707676	     -7.49999987	     -8.44835836	     -1.92302864	      0.97043043	     27.88582163	    -10.43584106	     58.00874978	    115.92772570	     88.32468681	     27.20725518	     -3.61328357	     65.51486123	    114.35705319	     90.84556026
      5.68333330	     -0.80742958	      0.15332401	     -8.30655068	      0.70164290	      0.98995133	      0.61574141	      0.28994949	      8.36610901	      0.42220671	      0.14766250	      0.00257720	     -6.18897805	     -6.31957535	     -7.49999987	     29.83475925	      0.31039219	      7.42739260	     20.83673749	      0.36366967	     -0.56906969	      1.98989104	     -7.49999987	     -8.64992081	     -1.77372512	      0.33007684	     28.38624687	    -10.23540329	     58.22239777	    115.83313223	     92.69814064	     28.74214254	     -2.99226058	     62.84306442	    111.53393188	     95.60351414
      5.70000000	     -0.66637515	      0.32095616	     -8.07170625	      0.70107218	      0.99185667	      0.61560020	      0.17326045	      8.10990894	      0.96205578	      0.14658215	      0.00255834	     -5.74288178	     -6.17840072	     -7.49999987	     29.81135562	      0.42693693	      7.27373847	     20.30158777	      0.35432955	     -0.29596485	      2.10926720	     -7.49999987	     -8.86797689	     -1.59892276	      0.24021890	     28.47782124	    -10.29710082	     58.43553513	    116.15850841	     93.29912446	     28.89409182	     -2.60307494	     61.54875914	    110.09373792	     96.45271709
      5.71666670	     -0.54586548	      0.58078480	     -7.79115697	      0.70691797	      0.99044643	      0.61754955	     -0.00214340	      7.80009685	      1.39897300	      0.13988799	      0.00244151	     -5.11729499	     -5.85270314	     -7.49999987	     29.59118622	      0.60845785	      7.15426935	     19.15040858	      0.33423768	     -0.32493096	      2.25991080	     -7.49999987	     -8.85386143	     -1.59561885	      0.09419639	     28.36702557	    -10.04973810	     58.58903061	    116.50253500	     93.36721723	     28.65374044	     -2.42864380	     61.07044048	    109.08960790	     96.53093034
      5.73333330	     -0.28539213	      0.66492357	     -7.50553464	      0.70043030	      0.99385671	      0.61522121	     -0.24317354	      7.61935981	      1.83752190	      0.13668138	      0.00238554	     -4.66723229	     -5.41973453	     -7.49999987	     29.36788028	      0.61495055	      7.02403311	     18.18175959	      0.31733157	     -0.42821698	      2.65219267	     -7.49999987	     -9.24925636	     -1.33625632	     -0.01077443	     28.01403337	     -9.90385005	     58.40607321	    116.57453201	     92.38097397	     27.95788562	     -2.51404592	     61.09455906	    108.92212997	     95.50023513
      5.75000000	     -0.15316835	      0.70425380	     -7.29239708	      0.70047575	      0.99262075	      0.61569338	     -0.35665088	      7.54138547	      2.28765811	      0.13602042	      0.00237400	     -4.27839145	     -5.27553192	     -7.49999987	     29.23231023	      0.50993310	      6.86926953	     17.41186429	      0.30389436	     -0.69886777	      2.89504830	     -7.49999987	     -9.49275097	     -1.15801816	      0.07100293	     27.83094545	     -9.84916550	     58.00188462	    116.69635856	     94.70562325	     27.82923255	     -2.34922100	     60.98712886	    108.73291204	     98.78571037
      5.76666670	      0.11339925	      0.69812394	     -7.00881470	      0.70009599	      0.98919073	      0.61507823	     -0.58778485	      7.49462875	      2.26475536	      0.13718850	      0.00239439	     -3.91198356	     -5.09868086	     -7.49999987	     28.96242262	      0.41320974	      6.84039953	     16.92435338	      0.29538569	     -0.99634360	      3.12678856	     -7.49999987	     -9.82631260	     -0.89984370	     -0.15026689	     28.02472550	     -9.76802363	     58.17070334	    116.70112575	     90.62166741	     27.97679750	     -2.38316208	     60.82764217	    108.74872079	     94.25842823
      5.78333330	     -0.00802087	      0.71090892	     -6.84365209	      0.70058360	      0.99173147	      0.61505045	     -0.43443685	      7.47402263	      2.34373182	      0.13770095	      0.00240333	     -3.67030440	     -5.10070090	     -7.49999987	     29.07764726	      0.23269057	      6.69501318	     16.54388575	      0.28874528	     -1.20817213	      3.33640116	     -7.49999987	     -9.74231589	     -0.63218520	     -0.03607512	     27.93304136	     -9.93481045	     57.99565692	    116.89841180	     94.54801176	     27.50593201	     -2.49016635	     60.50500929	    108.67307674	     99.06568420
      5.80000000	     -0.16053604	      0.71328882	     -6.62355657	      0.70020600	      0.99061099	      0.61457167	     -0.19518085	      7.48991629	      2.40093121	      0.14088755	      0.00245895	     -3.68041782	     -5.11007692	     -7.49999987	     29.37788749	      0.08793895	      6.56630346	     16.34212719	      0.28522393	     -1.22200584	      3.70459147	     -7.49999987	     -9.86451214	     -0.38153657	      0.06930447	     28.34058043	     -9.96517923	     58.43299618	    116.84592259	     93.09021222	     27.67214625	     -2.56883309	     60.50598982	    108.35298655	     97.51926598
      5.81666670	     -0.12373178	      0.73621097	     -6.34484821	      0.70065683	      0.99236891	      0.61523336	     -0.17989428	      7.46908115	      2.51501558	      0.14279542	      0.00249225	     -3.62139477	     -5.31633489	     -7.49999987	     29.36139416	     -0.02947478	      6.32527435	     16.30639821	      0.28460034	     -1.50748570	      3.97904009	     -7.49999987	    -10.15577449	     -0.20017499	      0.32884846	     28.47672316	    -10.08472033	     58.55883197	    116.87608683	     93.29666192	     27.44123015	     -2.53716266	     60.49563615	    108.12354832	     98.70878032
